<svg xmlns="http://www.w3.org/2000/svg" width="16" height="14.769" viewBox="0 0 16 14.769">
  <g id="trophy" transform="translate(0 -18.277)">
    <path id="Path_8" data-name="Path 8" d="M15.731,21.008a.89.89,0,0,0-.654-.269H12.308v-.923a1.543,1.543,0,0,0-1.538-1.538H5.231a1.543,1.543,0,0,0-1.538,1.538v.923H.923a.89.89,0,0,0-.654.269A.89.89,0,0,0,0,21.661v1.231a2.736,2.736,0,0,0,.4,1.375,4.581,4.581,0,0,0,1.077,1.25,5.98,5.98,0,0,0,1.663.938,6.522,6.522,0,0,0,2.072.428,5.124,5.124,0,0,0,.913.913,1.8,1.8,0,0,1,.5.7,2.435,2.435,0,0,1,.139.86,1.329,1.329,0,0,1-.293.875,1.146,1.146,0,0,1-.937.356,2.035,2.035,0,0,0-1.284.437,1.341,1.341,0,0,0-.562,1.1v.615A.3.3,0,0,0,4,33.046h8a.3.3,0,0,0,.308-.308v-.615a1.341,1.341,0,0,0-.563-1.1,2.035,2.035,0,0,0-1.284-.437,1.145,1.145,0,0,1-.937-.356,1.329,1.329,0,0,1-.293-.875,2.435,2.435,0,0,1,.139-.86,1.8,1.8,0,0,1,.5-.7,5.125,5.125,0,0,0,.913-.913,6.523,6.523,0,0,0,2.072-.428,5.983,5.983,0,0,0,1.663-.938,4.583,4.583,0,0,0,1.077-1.25,2.737,2.737,0,0,0,.4-1.375V21.661A.891.891,0,0,0,15.731,21.008ZM2.139,24.45a2.207,2.207,0,0,1-.909-1.558v-.923H3.692A8.5,8.5,0,0,0,4.4,25.536,4.785,4.785,0,0,1,2.139,24.45Zm12.63-1.558a2.206,2.206,0,0,1-.908,1.558A4.786,4.786,0,0,1,11.6,25.536a8.5,8.5,0,0,0,.711-3.567h2.461v.923Z" fill="#c09451"/>
  </g>
</svg>
