<?xml version="1.0"?>
<svg xmlns="http://www.w3.org/2000/svg" xmlns:xlink="http://www.w3.org/1999/xlink" xmlns:svgjs="http://svgjs.com/svgjs" version="1.1" width="512" height="512" x="0" y="0" viewBox="0 0 50.999 50.999" style="enable-background:new 0 0 512 512" xml:space="preserve" class=""><g>
<g xmlns="http://www.w3.org/2000/svg">
	<g>
		<path d="M28.159,34.8c-0.527,0.476-1.224,0.766-1.992,0.766h-1.332c-0.768,0-1.465-0.29-1.992-0.766    c-0.895-0.81-2.317-1.9-3.974-1.9H5.633c-1.657,0-2.988,0.093-2.977,0.209c0.006,0.07,0.011,0.141,0.011,0.212v9.449    c0,1.657,1.344,3,3,3h39.667c1.656,0,3-1.343,3-3V33.32c0-0.071,0.004-0.142,0.012-0.212c0.01-0.116-1.32-0.209-2.978-0.209    H32.133C30.477,32.899,29.055,33.991,28.159,34.8z" fill="#c0953b" data-original="#000000" style=""/>
		<path d="M38.25,12.354c-1.657,0-3-0.588-3-1.312V9.729c0-2.481-2.02-4.5-4.5-4.5h-10.5c-2.481,0-4.5,2.019-4.5,4.5    c0,0,0,0.588,0,1.312s-1.343,1.312-3,1.312H3c-1.657,0-3,1.344-3,3v12c0,0.769,0.29,1.465,0.766,1.991    c0.197,0.219,0.411,0.47,0.621,0.748c0.323,0.429,1.885,0.807,3.542,0.807h13.939c1.657,0,3.079-1.092,3.974-1.9    c0.527-0.476,1.224-0.766,1.992-0.766h1.332c0.768,0,1.465,0.29,1.992,0.766c0.895,0.81,2.316,1.9,3.974,1.9H46.07    c1.656,0,3.219-0.377,3.541-0.807c0.211-0.277,0.425-0.528,0.621-0.748c0.477-0.526,0.767-1.225,0.767-1.991v-12    c0-1.656-1.345-3-3-3H38.25z M32.25,11.042c0,0.725-1.343,1.312-3,1.312h-7.5c-1.657,0-3-0.588-3-1.312V9.729    c0-0.827,0.673-1.5,1.5-1.5h10.5c0.827,0,1.5,0.673,1.5,1.5C32.25,9.729,32.25,10.316,32.25,11.042z" fill="#c0953b" data-original="#000000" style=""/>
	</g>
</g>
<g xmlns="http://www.w3.org/2000/svg">
</g>
<g xmlns="http://www.w3.org/2000/svg">
</g>
<g xmlns="http://www.w3.org/2000/svg">
</g>
<g xmlns="http://www.w3.org/2000/svg">
</g>
<g xmlns="http://www.w3.org/2000/svg">
</g>
<g xmlns="http://www.w3.org/2000/svg">
</g>
<g xmlns="http://www.w3.org/2000/svg">
</g>
<g xmlns="http://www.w3.org/2000/svg">
</g>
<g xmlns="http://www.w3.org/2000/svg">
</g>
<g xmlns="http://www.w3.org/2000/svg">
</g>
<g xmlns="http://www.w3.org/2000/svg">
</g>
<g xmlns="http://www.w3.org/2000/svg">
</g>
<g xmlns="http://www.w3.org/2000/svg">
</g>
<g xmlns="http://www.w3.org/2000/svg">
</g>
<g xmlns="http://www.w3.org/2000/svg">
</g>
</g></svg>
