<svg xmlns="http://www.w3.org/2000/svg" width="19.991" height="15.992" viewBox="0 0 19.991 15.992">
  <g id="Group_4" data-name="Group 4" transform="translate(-142 -496)">
    <path id="solid_hands-helping" data-name="solid hands-helping" d="M15.221,6.018H10.473V7.768a2.249,2.249,0,0,1-4.5,0v-3.8L3.948,5.187A2,2,0,0,0,2.977,6.9V8.377L.478,9.82a1,1,0,0,0-.365,1.365l2.5,4.329a1,1,0,0,0,1.365.365l3.23-1.865h4.267a2,2,0,0,0,2-2h.5a1,1,0,0,0,1-1v-2h.25a.748.748,0,0,0,.75-.75v-1.5A.748.748,0,0,0,15.221,6.018ZM19.835,4.85,17.336.521A1,1,0,0,0,15.971.155L12.741,2.02H9.549a2.014,2.014,0,0,0-1.059.3l-1.046.653a.993.993,0,0,0-.469.847V7.768a1.249,1.249,0,0,0,2.5,0V5.019h5.748a1.75,1.75,0,0,1,1.749,1.749v.89l2.5-1.443A1,1,0,0,0,19.835,4.85Z" transform="translate(142.023 495.978)" fill="#c09451"/>
  </g>
</svg>
