<svg xmlns="http://www.w3.org/2000/svg" xmlns:xlink="http://www.w3.org/1999/xlink" width="67" height="67" viewBox="0 0 67 67">
  <defs>
    <filter id="Ellipse_1" x="0" y="0" width="67" height="67" filterUnits="userSpaceOnUse">
      <feOffset dy="2" input="SourceAlpha"/>
      <feGaussianBlur stdDeviation="1" result="blur"/>
      <feFlood flood-color="#003855" flood-opacity="0.161"/>
      <feComposite operator="in" in2="blur"/>
      <feComposite in="SourceGraphic"/>
    </filter>
  </defs>
  <g id="Group_23" data-name="Group 23" transform="translate(-37 -276)">
    <g transform="matrix(1, 0, 0, 1, 37, 276)" filter="url(#Ellipse_1)">
      <circle id="Ellipse_1-2" data-name="Ellipse 1" cx="30.5" cy="30.5" r="30.5" transform="translate(3 1)" fill="#fff" opacity="0.299"/>
    </g>
    <path id="solid_chevron-left" data-name="solid chevron-left" d="M27.786,46.075l8.119-8.119a1,1,0,0,1,1.418,0l.947.947a1,1,0,0,1,0,1.416l-6.435,6.465,6.435,6.465a1,1,0,0,1,0,1.416l-.947.947a1,1,0,0,1-1.418,0l-8.119-8.119A1,1,0,0,1,27.786,46.075Z" transform="translate(35.507 260.337)" fill="#fff"/>
  </g>
</svg>
