<svg xmlns="http://www.w3.org/2000/svg" width="61" height="61" viewBox="0 0 61 61">
  <g id="Group_60" data-name="Group 60" transform="translate(-1265 -2809)">
    <g id="Group_22" data-name="Group 22" transform="translate(1147 2532)">
      <circle id="Ellipse_2" data-name="Ellipse 2" cx="30.5" cy="30.5" r="30.5" transform="translate(118 277)" fill="#f2f7fc"/>
      <path id="solid_chevron-right" data-name="solid chevron-right" d="M38.272,47.488l-8.119,8.119a1,1,0,0,1-1.418,0l-.947-.947a1,1,0,0,1,0-1.416l6.435-6.465-6.435-6.465a1,1,0,0,1,0-1.416l.947-.947a1,1,0,0,1,1.418,0l8.119,8.119A1,1,0,0,1,38.272,47.488Z" transform="translate(115.968 260.343)" fill="#c09451"/>
    </g>
  </g>
</svg>
